<?xml version="1.0" encoding="UTF-8" standalone="no"?>
<!-- Created with Inkscape (http://www.inkscape.org/) -->

<svg
   width="210mm"
   height="297mm"
   viewBox="0 0 210 297"
   version="1.1"
   id="svg5"
   inkscape:version="1.1 (c4e8f9ed74, 2021-05-24)"
   sodipodi:docname="p2_2.svg"
   xmlns:inkscape="http://www.inkscape.org/namespaces/inkscape"
   xmlns:sodipodi="http://sodipodi.sourceforge.net/DTD/sodipodi-0.dtd"
   xmlns="http://www.w3.org/2000/svg"
   xmlns:svg="http://www.w3.org/2000/svg">
  <sodipodi:namedview
     id="namedview7"
     pagecolor="#ffffff"
     bordercolor="#666666"
     borderopacity="1.0"
     inkscape:pageshadow="2"
     inkscape:pageopacity="0.0"
     inkscape:pagecheckerboard="0"
     inkscape:document-units="mm"
     showgrid="false"
     inkscape:zoom="1.5411756"
     inkscape:cx="475.13749"
     inkscape:cy="294.49648"
     inkscape:window-width="1920"
     inkscape:window-height="1080"
     inkscape:window-x="1920"
     inkscape:window-y="0"
     inkscape:window-maximized="0"
     inkscape:current-layer="layer1" />
  <defs
     id="defs2">
    <inkscape:path-effect
       effect="bspline"
       id="path-effect6657"
       is_visible="true"
       lpeversion="1"
       weight="33.333333"
       steps="2"
       helper_size="0"
       apply_no_weight="true"
       apply_with_weight="true"
       only_selected="false" />
    <inkscape:path-effect
       effect="bspline"
       id="path-effect6540"
       is_visible="true"
       lpeversion="1"
       weight="33.333333"
       steps="2"
       helper_size="0"
       apply_no_weight="true"
       apply_with_weight="true"
       only_selected="false" />
    <inkscape:path-effect
       effect="bspline"
       id="path-effect6536"
       is_visible="true"
       lpeversion="1"
       weight="33.333333"
       steps="2"
       helper_size="0"
       apply_no_weight="true"
       apply_with_weight="true"
       only_selected="false" />
    <inkscape:path-effect
       effect="bspline"
       id="path-effect6498"
       is_visible="true"
       lpeversion="1"
       weight="33.333333"
       steps="2"
       helper_size="0"
       apply_no_weight="true"
       apply_with_weight="true"
       only_selected="false" />
    <inkscape:path-effect
       effect="bspline"
       id="path-effect6469"
       is_visible="true"
       lpeversion="1"
       weight="33.333333"
       steps="2"
       helper_size="0"
       apply_no_weight="true"
       apply_with_weight="true"
       only_selected="false" />
    <inkscape:path-effect
       effect="bspline"
       id="path-effect6450"
       is_visible="true"
       lpeversion="1"
       weight="33.333333"
       steps="2"
       helper_size="0"
       apply_no_weight="true"
       apply_with_weight="true"
       only_selected="false" />
    <inkscape:path-effect
       effect="bspline"
       id="path-effect6421"
       is_visible="true"
       lpeversion="1"
       weight="33.333333"
       steps="2"
       helper_size="0"
       apply_no_weight="true"
       apply_with_weight="true"
       only_selected="false" />
    <inkscape:path-effect
       effect="bspline"
       id="path-effect6313"
       is_visible="true"
       lpeversion="1"
       weight="33.333333"
       steps="2"
       helper_size="0"
       apply_no_weight="true"
       apply_with_weight="true"
       only_selected="false" />
    <inkscape:path-effect
       effect="bspline"
       id="path-effect6094"
       is_visible="true"
       lpeversion="1"
       weight="33.333333"
       steps="2"
       helper_size="0"
       apply_no_weight="true"
       apply_with_weight="true"
       only_selected="false" />
    <inkscape:path-effect
       effect="bspline"
       id="path-effect6090"
       is_visible="true"
       lpeversion="1"
       weight="33.333333"
       steps="2"
       helper_size="0"
       apply_no_weight="true"
       apply_with_weight="true"
       only_selected="false" />
    <inkscape:path-effect
       effect="bspline"
       id="path-effect6086"
       is_visible="true"
       lpeversion="1"
       weight="33.333333"
       steps="2"
       helper_size="0"
       apply_no_weight="true"
       apply_with_weight="true"
       only_selected="false" />
    <inkscape:path-effect
       effect="bspline"
       id="path-effect6082"
       is_visible="true"
       lpeversion="1"
       weight="33.333333"
       steps="2"
       helper_size="0"
       apply_no_weight="true"
       apply_with_weight="true"
       only_selected="false" />
    <inkscape:path-effect
       effect="bspline"
       id="path-effect6078"
       is_visible="true"
       lpeversion="1"
       weight="33.333333"
       steps="2"
       helper_size="0"
       apply_no_weight="true"
       apply_with_weight="true"
       only_selected="false" />
    <inkscape:path-effect
       effect="bspline"
       id="path-effect2958"
       is_visible="true"
       lpeversion="1"
       weight="33.333333"
       steps="2"
       helper_size="0"
       apply_no_weight="true"
       apply_with_weight="true"
       only_selected="false" />
    <inkscape:path-effect
       effect="bspline"
       id="path-effect2840"
       is_visible="true"
       lpeversion="1"
       weight="33.333333"
       steps="2"
       helper_size="0"
       apply_no_weight="true"
       apply_with_weight="true"
       only_selected="false" />
    <inkscape:path-effect
       effect="bspline"
       id="path-effect2703"
       is_visible="true"
       lpeversion="1"
       weight="33.333333"
       steps="2"
       helper_size="0"
       apply_no_weight="true"
       apply_with_weight="true"
       only_selected="false" />
    <inkscape:path-effect
       effect="bspline"
       id="path-effect2665"
       is_visible="true"
       lpeversion="1"
       weight="33.333333"
       steps="2"
       helper_size="0"
       apply_no_weight="true"
       apply_with_weight="true"
       only_selected="false" />
    <inkscape:path-effect
       effect="bspline"
       id="path-effect2636"
       is_visible="true"
       lpeversion="1"
       weight="33.333333"
       steps="2"
       helper_size="0"
       apply_no_weight="true"
       apply_with_weight="true"
       only_selected="false" />
    <marker
       style="overflow:visible;"
       id="marker1285"
       refX="0.0"
       refY="0.0"
       orient="auto"
       inkscape:stockid="Arrow2Lend"
       inkscape:isstock="true">
      <path
         transform="scale(1.1) rotate(180) translate(1,0)"
         d="M 8.7185878,4.0337352 L -2.2072895,0.016013256 L 8.7185884,-4.0017078 C 6.9730900,-1.6296469 6.9831476,1.6157441 8.7185878,4.0337352 z "
         style="fill-rule:evenodd;fill:context-stroke;stroke-width:0.62500000;stroke-linejoin:round;"
         id="path1045" />
    </marker>
    <inkscape:path-effect
       effect="bspline"
       id="path-effect21010"
       is_visible="true"
       lpeversion="1"
       weight="33.333333"
       steps="2"
       helper_size="0"
       apply_no_weight="true"
       apply_with_weight="true"
       only_selected="false" />
    <inkscape:path-effect
       effect="bspline"
       id="path-effect19146"
       is_visible="true"
       lpeversion="1"
       weight="33.333333"
       steps="2"
       helper_size="0"
       apply_no_weight="true"
       apply_with_weight="true"
       only_selected="false" />
    <inkscape:path-effect
       effect="bspline"
       id="path-effect18871"
       is_visible="true"
       lpeversion="1"
       weight="33.333333"
       steps="2"
       helper_size="0"
       apply_no_weight="true"
       apply_with_weight="true"
       only_selected="false" />
    <inkscape:path-effect
       effect="bspline"
       id="path-effect18763"
       is_visible="true"
       lpeversion="1"
       weight="33.333333"
       steps="2"
       helper_size="0"
       apply_no_weight="true"
       apply_with_weight="true"
       only_selected="false" />
    <inkscape:path-effect
       effect="bspline"
       id="path-effect18566"
       is_visible="true"
       lpeversion="1"
       weight="33.333333"
       steps="2"
       helper_size="0"
       apply_no_weight="true"
       apply_with_weight="true"
       only_selected="false" />
    <inkscape:path-effect
       effect="bspline"
       id="path-effect15446"
       is_visible="true"
       lpeversion="1"
       weight="33.333333"
       steps="2"
       helper_size="0"
       apply_no_weight="true"
       apply_with_weight="true"
       only_selected="false" />
    <inkscape:path-effect
       effect="bspline"
       id="path-effect15044"
       is_visible="true"
       lpeversion="1"
       weight="33.333333"
       steps="2"
       helper_size="0"
       apply_no_weight="true"
       apply_with_weight="true"
       only_selected="false" />
    <inkscape:path-effect
       effect="bspline"
       id="path-effect14351"
       is_visible="true"
       lpeversion="1"
       weight="33.333333"
       steps="2"
       helper_size="0"
       apply_no_weight="true"
       apply_with_weight="true"
       only_selected="false" />
    <marker
       style="overflow:visible;"
       id="Arrow2Lend"
       refX="0.0"
       refY="0.0"
       orient="auto"
       inkscape:stockid="Arrow2Lend"
       inkscape:isstock="true">
      <path
         transform="scale(1.1) rotate(180) translate(1,0)"
         d="M 8.7185878,4.0337352 L -2.2072895,0.016013256 L 8.7185884,-4.0017078 C 6.9730900,-1.6296469 6.9831476,1.6157441 8.7185878,4.0337352 z "
         style="fill-rule:evenodd;fill:context-stroke;stroke-width:0.62500000;stroke-linejoin:round;"
         id="path962" />
    </marker>
    <marker
       style="overflow:visible"
       id="Arrow2Lstart"
       refX="0.0"
       refY="0.0"
       orient="auto"
       inkscape:stockid="Arrow2Lstart"
       inkscape:isstock="true">
      <path
         transform="scale(1.1) translate(1,0)"
         d="M 8.7185878,4.0337352 L -2.2072895,0.016013256 L 8.7185884,-4.0017078 C 6.9730900,-1.6296469 6.9831476,1.6157441 8.7185878,4.0337352 z "
         style="fill-rule:evenodd;fill:context-stroke;stroke-width:0.62500000;stroke-linejoin:round"
         id="path959" />
    </marker>
  </defs>
  <g
     inkscape:label="Layer 1"
     inkscape:groupmode="layer"
     id="layer1">
    <path
       style="fill:none;stroke:#000000;stroke-width:0.265;stroke-linecap:butt;stroke-linejoin:miter;stroke-miterlimit:4;stroke-dasharray:none;stroke-opacity:1;marker-start:url(#Arrow2Lstart)"
       d="M 65.594595,46.602832 V 97.293855"
       id="path42" />
    <path
       style="fill:none;stroke:#000000;stroke-width:0.256;stroke-linecap:butt;stroke-linejoin:miter;stroke-miterlimit:4;stroke-dasharray:none;stroke-opacity:1;marker-end:url(#Arrow2Lend)"
       d="m 59.50122,91.41571 h 55.10881"
       id="path44" />
    <text
       xml:space="preserve"
       style="font-style:normal;font-weight:normal;font-size:2.82222px;line-height:1.25;font-family:sans-serif;fill:#000000;fill-opacity:1;stroke:none;stroke-width:0.264583"
       x="64.372101"
       y="44.895538"
       id="text2363"><tspan
         sodipodi:role="line"
         id="tspan2361"
         style="font-size:2.82222px;stroke-width:0.264583"
         x="64.372101"
         y="44.895538">$x$</tspan></text>
    <text
       xml:space="preserve"
       style="font-style:normal;font-weight:normal;font-size:2.82222px;line-height:1.25;font-family:sans-serif;fill:#000000;fill-opacity:1;stroke:none;stroke-width:0.264583"
       x="116.63017"
       y="92.373085"
       id="text5457"><tspan
         sodipodi:role="line"
         id="tspan5455"
         style="font-size:2.82222px;stroke-width:0.264583"
         x="116.63017"
         y="92.373085">$p_1$</tspan></text>
    <path
       style="fill:none;stroke:#000000;stroke-width:0.264583px;stroke-linecap:butt;stroke-linejoin:miter;stroke-opacity:0"
       d="M 47.208304,56.162027 V 78.06995"
       id="path14498" />
    <path
       style="fill:none;stroke:#000000;stroke-width:0.264583px;stroke-linecap:butt;stroke-linejoin:miter;stroke-opacity:0"
       d="M 130.07767,53.944654 V 68.474825"
       id="path14500" />
    <path
       style="fill:none;stroke:#000000;stroke-width:0.45;stroke-linecap:butt;stroke-linejoin:miter;stroke-miterlimit:4;stroke-dasharray:none;stroke-opacity:1"
       d="m 84.902687,48.955844 c 3.967405,-1.462726 7.93466,-2.925397 11.496369,-3.352615 3.561709,-0.427218 6.717584,0.18088 9.515084,0.08844 2.79751,-0.09245 5.23661,-0.885302 8.44605,-0.466023 3.20944,0.419279 7.18887,2.050457 9.89888,2.975547 2.71001,0.92509 4.1505,1.144135 5.59073,1.36314"
       id="path21008"
       inkscape:path-effect="#path-effect21010"
       inkscape:original-d="m 84.902687,48.955844 c 3.967523,-1.462405 7.934778,-2.925077 11.901768,-4.388014 3.15627,0.608388 6.312145,1.216486 9.467825,1.824331 2.43947,-0.792622 4.87857,-1.585481 7.31745,-2.378617 3.97985,1.631508 7.95927,3.262688 11.93851,4.893635 1.44081,0.219319 2.8813,0.438362 4.32156,0.657149" />
    <path
       style="fill:none;stroke:#000000;stroke-width:0.256;stroke-linecap:butt;stroke-linejoin:miter;stroke-miterlimit:4;stroke-dasharray:none;stroke-opacity:1;marker-end:url(#marker1285)"
       d="M 65.669096,91.372379 100.94591,55.607346"
       id="path942" />
    <text
       xml:space="preserve"
       style="font-style:normal;font-weight:normal;font-size:2.82222px;line-height:1.25;font-family:sans-serif;fill:#000000;fill-opacity:1;stroke:none;stroke-width:0.264583"
       x="98.126984"
       y="53.68932"
       id="text5457-3"><tspan
         sodipodi:role="line"
         id="tspan5455-6"
         style="font-size:2.82222px;stroke-width:0.264583"
         x="98.126984"
         y="53.68932">$p_2$</tspan></text>
    <path
       style="fill:none;stroke:#000000;stroke-width:0.443297;stroke-linecap:butt;stroke-linejoin:miter;stroke-miterlimit:4;stroke-dasharray:none;stroke-opacity:1"
       d="m 96.16409,37.665641 c 3.87881,-1.451902 7.75748,-2.903751 11.23965,-3.327808 3.48217,-0.424057 6.56759,0.179544 9.30262,0.08778 2.73503,-0.09176 5.11967,-0.878752 8.25744,-0.462578 3.13778,0.416175 7.02834,2.035283 9.67784,2.953529 2.6495,0.918246 4.05781,1.135669 5.46589,1.353055"
       id="path21008-7"
       inkscape:path-effect="#path-effect2636"
       inkscape:original-d="m 96.16409,37.665641 c 3.87893,-1.451584 7.7576,-2.903432 11.636,-4.355544 3.08578,0.603886 6.1712,1.207484 9.25641,1.810832 2.38499,-0.786757 4.76963,-1.57375 7.15405,-2.361017 3.89097,1.619435 7.78153,3.238545 11.67192,4.857424 1.40864,0.217696 2.81695,0.435118 4.22506,0.652287" />
    <path
       style="fill:none;stroke:#000000;stroke-width:0.433807;stroke-linecap:butt;stroke-linejoin:miter;stroke-miterlimit:4;stroke-dasharray:none;stroke-opacity:1"
       d="m 106.55857,31.909325 c 3.89542,-1.384482 7.79067,-2.768903 11.28774,-3.173265 3.49708,-0.404362 6.59569,0.171205 9.34243,0.0837 2.74673,-0.0875 5.14157,-0.837944 8.29277,-0.441095 3.15119,0.396849 7.05839,1.940765 9.71923,2.816369 2.66084,0.875604 4.07518,1.08293 5.48927,1.290219"
       id="path21008-7-5"
       inkscape:path-effect="#path-effect2665"
       inkscape:original-d="m 106.55857,31.909325 c 3.89553,-1.384172 7.79078,-2.768598 11.68578,-4.153274 3.099,0.575842 6.19761,1.151409 9.29602,1.726738 2.3952,-0.750221 4.79004,-1.500665 7.18466,-2.251373 3.90762,1.54423 7.81482,3.088149 11.72185,4.631847 1.41467,0.207587 2.82901,0.414911 4.24313,0.621994" />
    <path
       style="fill:none;stroke:#000000;stroke-width:0.508141;stroke-linecap:butt;stroke-linejoin:miter;stroke-miterlimit:4;stroke-dasharray:none;stroke-opacity:1"
       d="m 129.02219,51.343224 c 0.8818,-2.397308 1.76367,-4.794798 3.53133,-6.937866 1.76766,-2.143069 4.42089,-4.03143 6.70734,-5.600316 2.28645,-1.568886 4.20596,-2.818198 6.15911,-3.878334 1.95316,-1.060137 3.93976,-1.931016 5.41763,-2.444694 1.47787,-0.513678 2.44683,-0.670146 3.41559,-0.826583"
       id="path2701"
       inkscape:path-effect="#path-effect2703"
       inkscape:original-d="m 129.02219,51.343224 c 0.88214,-2.397183 1.76401,-4.794672 2.6456,-7.192461 2.65363,-1.888138 5.30686,-3.776502 7.95987,-5.665206 1.91987,-1.249063 3.83938,-2.498378 5.75867,-3.748021 1.98695,-0.870612 3.97355,-1.741492 5.95992,-2.61269 0.96927,-0.156171 1.93823,-0.312642 2.90694,-0.469415" />
    <path
       style="fill:none;stroke:#000000;stroke-width:0.492958;stroke-linecap:butt;stroke-linejoin:miter;stroke-miterlimit:4;stroke-dasharray:none;stroke-opacity:1"
       d="m 84.312097,50.619782 c 0.438745,-1.446701 0.877547,-2.893594 2.17092,-4.485783 1.293373,-1.592189 3.44115,-3.329403 5.617197,-5.211441 2.176047,-1.882038 4.380255,-3.908802 6.777289,-5.381841 2.397037,-1.473038 4.986597,-2.392224 7.151457,-3.359258 2.16487,-0.967035 3.90498,-1.981862 5.64505,-2.996667"
       id="path2956"
       inkscape:path-effect="#path-effect2958"
       inkscape:original-d="m 84.312097,50.619782 c 0.439075,-1.446601 0.877879,-2.893493 1.316405,-4.340669 2.148136,-1.736997 4.295914,-3.474209 6.44346,-5.211745 2.204567,-2.026557 4.408775,-4.05332 6.61275,-6.080409 2.589948,-0.918936 5.179508,-1.838121 7.768838,-2.757613 1.74047,-1.014588 3.48058,-2.029417 5.22046,-3.044554" />
    <path
       style="stroke:#000000;stroke-width:0;stroke-miterlimit:4;stroke-dasharray:none;stroke-opacity:1;fill:#000000;fill-opacity:0.30121693"
       d="m 483.72158,184.93389 c -5.71999,-1.21471 -9.89794,-2.51207 -27.75364,-8.61819 -6.9383,-2.37269 -14.88596,-4.80187 -17.66146,-5.39818 -7.45522,-1.60173 -15.32626,-1.75186 -25.92252,-0.49444 -9.98463,1.18484 -13.88396,1.2758 -30.74077,0.71712 -13.44082,-0.44547 -17.68731,-0.18235 -25.92344,1.60622 -5.77025,1.25308 -16.54512,4.51302 -25.35314,7.67059 -4.10136,1.47029 -7.45695,2.5342 -7.45686,2.36424 8e-5,-0.16996 1.21732,-2.15123 2.70498,-4.40281 3.40354,-5.15133 8.89646,-10.49431 24.86954,-24.19072 11.81883,-10.13426 12.31462,-10.50005 16.06435,-11.85198 25.33197,-9.13319 35.02775,-11.62193 46.31439,-11.88814 2.64966,-0.0625 10.80495,0.0576 18.12287,0.26685 12.33501,0.35273 13.90758,0.30603 21.56439,-0.64044 6.42487,-0.7942 9.73656,-0.97086 14.91173,-0.79546 7.94732,0.26934 13.82166,1.65679 27.75469,6.55532 16.28425,5.72515 20.53951,7.09603 25.18179,8.11259 2.54994,0.55837 4.79388,1.14492 4.98653,1.30343 0.19266,0.15851 -1.87285,1.86604 -4.59002,3.79452 -16.17905,11.48286 -23.14664,19.07856 -29.06609,31.68635 -1.37619,2.93114 -2.60539,5.31707 -2.73156,5.30207 -0.12616,-0.015 -2.50025,-0.50952 -5.27576,-1.09894 z"
       id="path3077"
       transform="scale(0.26458333)" />
    <path
       style="fill:#000000;fill-opacity:0.2994335;stroke:#000000;stroke-width:0;stroke-miterlimit:4;stroke-dasharray:none;stroke-opacity:1"
       d="m 522.51263,142.27944 c -4.80839,-1.05555 -7.25779,-1.83856 -28.44664,-9.09359 -15.33314,-5.25005 -19.26327,-6.07618 -28.89694,-6.07424 -5.00931,0.001 -9.58832,0.29522 -13.53534,0.86969 -6.8166,0.99211 -13.80284,1.1149 -30.05232,0.52819 -9.46564,-0.34176 -12.07652,-0.28838 -16.53403,0.33807 -7.16835,1.00744 -15.9155,3.28137 -26.36381,6.85361 -4.79289,1.63867 -8.77683,2.91686 -8.8532,2.84041 -0.0764,-0.0764 1.47062,-1.16896 3.43776,-2.42782 11.34785,-7.262 40.32875,-19.05011 57.72692,-23.48068 13.4035,-3.4133 18.87306,-3.81778 41.06504,-3.03681 10.10844,0.35573 12.04188,0.29894 19.19536,-0.5638 18.13156,-2.18673 23.67224,-1.37133 49.62273,7.3028 7.44294,2.48785 15.70025,4.99585 18.34959,5.57333 2.64933,0.57747 4.97409,1.17913 5.16612,1.33701 0.19203,0.15788 -0.8406,0.77133 -2.29474,1.36322 -7.44329,3.02968 -19.82345,9.88302 -29.13019,16.12573 -2.19909,1.47509 -4.36757,2.66406 -4.81884,2.64215 -0.45128,-0.0219 -2.98814,-0.51567 -5.63747,-1.09727 z"
       id="path5151"
       transform="scale(0.26458333)" />
    <path
       style="fill:none;stroke:#000000;stroke-width:0.264583px;stroke-linecap:butt;stroke-linejoin:miter;stroke-opacity:1"
       d="m 94.725984,47.878407 c 1.676183,-2.014759 3.352387,-4.029546 5.588956,-5.995561 2.23657,-1.966015 5.03332,-3.883117 7.31182,-5.418221 2.2785,-1.535104 4.03862,-2.688124 6.51909,-4.12265 2.48048,-1.434526 5.68112,-3.150458 8.88172,-4.866369"
       id="path6076"
       inkscape:path-effect="#path-effect6078"
       inkscape:original-d="m 94.725984,47.878407 c 1.676468,-2.014522 3.352673,-4.029308 5.028615,-6.044359 2.797121,-1.916914 5.593871,-3.834013 8.390401,-5.751417 1.76046,-1.1528 3.52058,-2.305823 5.28047,-3.459131 3.20103,-1.715735 6.40167,-3.431664 9.6021,-5.147894" />
    <path
       style="fill:none;stroke:#000000;stroke-width:0.264583px;stroke-linecap:butt;stroke-linejoin:miter;stroke-opacity:1"
       d="m 106.76023,48.42878 c 2.36543,-2.474168 4.73086,-4.94834 6.86673,-6.837195 2.13588,-1.888856 4.04204,-3.192295 6.40594,-4.785344 2.3639,-1.59305 5.18536,-3.475602 7.42476,-5.14127 2.23939,-1.665669 3.89664,-3.114378 5.5539,-4.563097"
       id="path6080"
       inkscape:path-effect="#path-effect6082"
       inkscape:original-d="m 106.76023,48.42878 c 2.3657,-2.47391 4.73113,-4.948084 7.09631,-7.422526 1.9065,-1.303226 3.81267,-2.606664 5.71862,-3.910393 2.82184,-1.882365 5.6433,-3.764918 8.46456,-5.647775 1.65758,-1.448501 3.31483,-2.897208 4.97184,-4.346212" />
    <path
       style="fill:none;stroke:#000000;stroke-width:0.264583px;stroke-linecap:butt;stroke-linejoin:miter;stroke-opacity:1"
       d="m 118.23041,50.431853 c 2.83152,-3.205495 5.66306,-6.411011 8.30607,-9.255574 2.64301,-2.844564 5.09739,-5.328063 7.62149,-7.430424 2.52411,-2.102361 5.11772,-3.823424 7.71132,-5.544481"
       id="path6084"
       inkscape:path-effect="#path-effect6086"
       inkscape:original-d="m 118.23041,50.431853 c 2.8318,-3.205247 5.66334,-6.410762 8.49461,-9.616541 2.45474,-2.483334 4.90912,-4.966832 7.36328,-7.450645 2.59398,-1.720866 5.18759,-3.44193 7.78099,-5.163293" />
    <path
       style="fill:none;stroke:#000000;stroke-width:0.465;stroke-linecap:butt;stroke-linejoin:miter;stroke-opacity:1;stroke-miterlimit:4;stroke-dasharray:none"
       d="m 87.495334,42.040608 c 5.808641,-0.786686 11.61706,-1.573343 16.739136,-1.913427 5.12207,-0.340084 9.55757,-0.233637 13.83929,0.236338 4.28173,0.469976 8.4094,1.303389 11.17309,2.026006 2.7637,0.722618 4.16326,1.33432 5.56253,1.945897"
       id="path6088"
       inkscape:path-effect="#path-effect6090"
       inkscape:original-d="m 87.495334,42.040608 c 5.808681,-0.786392 11.6171,-1.573048 17.425256,-2.359969 4.43594,0.106714 8.87144,0.213161 13.30676,0.319347 4.1281,0.83371 8.25577,1.667123 12.38326,2.500291 1.39988,0.611992 2.79944,1.223695 4.19877,1.835145" />
    <path
       style="fill:none;stroke:#000000;stroke-width:0.465;stroke-linecap:butt;stroke-linejoin:miter;stroke-opacity:1;stroke-miterlimit:4;stroke-dasharray:none"
       d="m 100.63697,32.441319 c 0.19033,8.8e-5 0.38039,1.76e-4 2.28364,-0.08646 1.90326,-0.08663 5.51957,-0.259972 8.85862,-0.439338 3.33905,-0.179366 6.40065,-0.364745 9.5161,-0.449962 3.11545,-0.08522 6.28455,-0.07028 9.38368,0.325301 3.09914,0.395584 6.12809,1.171711 8.61534,1.951646 2.48724,0.779935 4.43264,1.56358 6.37777,2.347115"
       id="path6092"
       inkscape:path-effect="#path-effect6094"
       inkscape:original-d="m 100.63697,32.441319 c 0.19033,2.64e-4 0.38039,5.29e-4 0.57019,2.64e-4 3.61672,-0.173079 7.23303,-0.346419 10.84915,-0.520025 3.06199,-0.185121 6.12359,-0.370501 9.18499,-0.556149 3.16948,0.01519 6.33858,0.03013 9.50747,0.0448 3.02933,0.776423 6.05828,1.552549 9.08702,2.328424 1.94575,0.783944 3.89115,1.56759 5.83633,2.350989" />
    <path
       style="fill:none;stroke:#000000;stroke-width:0.435093;stroke-linecap:butt;stroke-linejoin:miter;stroke-miterlimit:4;stroke-dasharray:none;stroke-opacity:1"
       d="m 130.07767,68.474825 c 4.70687,-1.647513 9.41359,-3.294975 13.18606,-3.794195 3.77247,-0.499221 6.61039,0.149667 9.41239,0.144215 2.802,-0.0055 5.5681,-0.665119 8.46974,-0.18519 2.90164,0.479929 5.93852,2.099169 8.07183,2.985739 2.13332,0.886569 3.363,1.04057 4.5924,1.194535"
       id="path6311"
       inkscape:path-effect="#path-effect6313"
       inkscape:original-d="m 130.07767,68.474825 c 4.707,-1.647136 9.41372,-3.294599 14.1202,-4.942398 2.83827,0.649242 5.67619,1.298129 8.51389,1.946695 2.76645,-0.659359 5.53255,-1.319018 8.2984,-1.979025 3.03726,1.619638 6.07414,3.238879 9.11083,4.857824 1.22998,0.154333 2.45966,0.308337 3.6891,0.462008" />
  </g>
</svg>
